<?xml version="1.0" standalone="no"?>
<!DOCTYPE svg PUBLIC "-//W3C//DTD SVG 20010904//EN"
 "http://www.w3.org/TR/2001/REC-SVG-20010904/DTD/svg10.dtd">
<svg version="1.0" xmlns="http://www.w3.org/2000/svg"
 width="1875.000000pt" height="523.000000pt" viewBox="0 0 1875.000000 523.000000"
 preserveAspectRatio="xMidYMid meet">

<g transform="translate(0.000000,523.000000) scale(0.100000,-0.100000)"
fill="#4d6bfe" stroke="none">
<path d="M4045 4552 c-17 -11 -45 -60 -45 -76 0 -9 -10 -34 -22 -58 -12 -23
-25 -62 -29 -87 -4 -26 -12 -73 -19 -105 -21 -105 -5 -261 43 -433 20 -69 81
-194 106 -217 12 -11 21 -24 21 -31 0 -15 123 -141 175 -180 85 -62 105 -86
105 -127 0 -42 -51 -208 -76 -245 -33 -51 -134 -17 -332 113 -57 37 -241 212
-455 432 -121 124 -285 262 -419 352 -115 78 -168 161 -168 263 0 85 31 136
138 222 24 19 48 35 53 35 5 0 9 7 9 15 0 26 -69 37 -210 33 -121 -4 -217 -17
-275 -38 -11 -4 -36 -13 -55 -20 -19 -7 -47 -15 -63 -17 -15 -3 -30 -9 -33
-14 -3 -5 -15 -9 -28 -9 -12 0 -31 -7 -42 -15 -10 -8 -29 -15 -40 -15 -12 0
-35 -7 -50 -15 -16 -8 -36 -15 -45 -15 -8 0 -20 -5 -26 -11 -12 -12 -134 -7
-233 10 -72 13 -362 12 -470 0 -203 -24 -202 -24 -360 -75 -65 -21 -276 -119
-290 -134 -3 -3 -36 -27 -75 -52 -62 -41 -285 -250 -285 -267 0 -3 -12 -19
-26 -36 -15 -16 -38 -48 -51 -69 -14 -22 -29 -44 -34 -50 -40 -48 -139 -232
-139 -258 0 -8 -4 -18 -9 -24 -4 -5 -16 -31 -26 -59 -9 -27 -21 -59 -25 -70
-7 -20 -24 -84 -42 -160 -9 -39 -18 -112 -37 -292 -10 -91 9 -362 30 -429 5
-17 9 -39 9 -50 0 -51 55 -251 112 -409 63 -173 214 -439 298 -525 16 -16 36
-43 44 -58 19 -36 289 -301 344 -337 23 -15 42 -31 42 -36 0 -4 8 -10 18 -13
9 -3 35 -21 57 -41 22 -19 54 -42 70 -50 17 -9 46 -25 65 -37 63 -39 323 -168
337 -168 8 0 27 -6 41 -14 50 -26 78 -35 207 -67 22 -6 68 -14 102 -19 66 -10
103 -24 103 -40 0 -6 118 -10 311 -10 289 0 313 1 335 19 15 12 49 21 91 26
64 6 88 11 188 37 50 13 142 43 180 59 17 6 39 15 50 19 62 25 154 72 173 90
11 11 25 20 30 20 5 0 22 11 38 25 16 14 34 25 39 25 6 0 22 11 36 24 14 13
43 35 65 50 21 14 48 33 60 41 19 14 26 13 80 -9 122 -49 252 -69 439 -69 231
1 343 22 403 77 29 27 33 36 30 75 l-3 44 -104 53 c-57 30 -110 54 -118 54 -7
0 -35 11 -61 24 -26 13 -62 27 -79 31 -18 3 -35 11 -38 16 -4 5 -19 9 -35 9
-37 0 -93 51 -83 77 8 23 79 109 155 188 59 62 99 111 144 180 15 22 34 46 42
54 43 44 232 385 232 420 0 7 10 36 23 64 13 29 31 77 41 107 10 30 21 64 25
75 15 37 30 90 37 128 3 20 10 40 15 43 5 3 9 20 9 39 0 19 4 45 10 60 25 65
50 247 56 402 5 117 6 123 31 143 14 11 34 20 44 20 35 0 216 47 234 60 6 5
35 16 65 26 30 10 63 25 72 34 10 9 37 26 60 38 57 28 169 137 224 218 103
151 167 351 168 530 1 77 -2 95 -18 113 -33 36 -56 26 -141 -59 -126 -127
-226 -169 -406 -170 -67 0 -112 -6 -151 -19 -80 -28 -187 -86 -232 -126 -54
-48 -72 -46 -96 11 -11 25 -20 56 -20 68 0 12 -11 33 -25 46 -14 13 -25 28
-25 34 -1 6 -8 20 -18 31 -18 22 -127 105 -137 105 -3 0 -23 11 -45 25 -22 14
-44 25 -50 25 -6 0 -39 18 -73 40 -90 57 -135 119 -172 236 -10 32 -25 69 -33
82 -14 22 -47 29 -67 14z m-3065 -1437 c121 -16 197 -30 243 -44 99 -29 144
-44 162 -51 11 -4 47 -16 80 -26 64 -20 318 -144 345 -169 9 -8 20 -15 23 -15
9 0 197 -130 272 -188 64 -49 335 -319 335 -333 0 -5 20 -31 45 -59 25 -28 45
-54 45 -58 0 -5 8 -17 18 -28 30 -33 113 -145 119 -162 4 -8 13 -23 20 -31 21
-24 61 -83 75 -111 7 -14 18 -29 25 -35 6 -5 20 -24 30 -41 17 -28 61 -91 99
-139 8 -11 25 -37 36 -57 12 -21 25 -38 30 -38 4 0 19 -17 32 -38 13 -21 39
-55 58 -74 18 -20 47 -53 63 -74 51 -66 227 -235 314 -301 116 -90 122 -96
119 -122 l-3 -26 -170 1 c-181 1 -243 7 -315 31 -51 17 -192 83 -200 93 -5 7
-75 61 -170 133 -30 22 -57 43 -60 46 -3 3 -30 23 -60 43 -30 21 -75 51 -100
69 -53 37 -119 82 -175 119 -22 14 -80 45 -128 69 -75 36 -96 42 -140 39 l-52
-3 -3 -50 c-3 -49 21 -150 39 -161 5 -3 9 -13 9 -24 0 -10 6 -20 13 -23 19 -7
57 -91 57 -125 0 -61 -78 -120 -181 -137 -40 -7 -216 21 -225 36 -3 5 -14 9
-25 9 -11 0 -42 12 -70 26 -69 35 -276 175 -319 216 -19 19 -65 57 -101 86
-36 28 -84 75 -106 104 -22 29 -57 70 -77 91 -40 42 -106 132 -106 146 0 4
-13 25 -30 46 -16 21 -30 43 -30 50 0 7 -6 15 -13 18 -13 5 -143 259 -167 327
-7 19 -18 49 -25 65 -7 17 -20 55 -29 85 -10 30 -22 64 -26 75 -5 11 -11 34
-14 50 -3 17 -12 62 -21 100 -9 39 -20 99 -25 135 -5 36 -13 99 -19 140 -6 41
-11 103 -11 137 0 52 4 66 26 93 33 39 83 60 143 60 25 0 53 5 61 10 21 14
136 11 260 -5z m2355 -165 c3 -5 13 -10 22 -10 24 0 83 -30 138 -71 63 -46
220 -209 230 -237 3 -12 10 -22 14 -22 4 0 20 -22 36 -50 16 -27 33 -50 37
-50 4 0 8 -6 8 -14 0 -8 6 -21 14 -28 19 -20 66 -114 66 -133 0 -8 5 -23 11
-33 8 -13 6 -27 -6 -55 -13 -31 -26 -42 -82 -68 -85 -39 -174 -48 -229 -24
-119 53 -184 105 -217 174 -19 40 -22 61 -20 169 2 181 -14 202 -180 237 -99
21 -127 43 -127 100 0 39 22 66 81 100 36 20 57 25 121 25 42 0 80 -4 83 -10z
m-97 -316 c31 -36 29 -79 -7 -115 -59 -58 -151 -20 -151 63 0 78 104 113 158
52z"/>
<path d="M13509 3891 c13 -8 16 -98 19 -585 l5 -576 138 0 139 0 0 103 0 102
106 115 c161 175 469 520 472 531 2 5 -66 9 -165 8 l-168 0 -115 -144 c-63
-80 -118 -145 -122 -145 -5 0 -8 135 -8 300 l0 300 -157 0 c-100 0 -153 -4
-144 -9z"/>
<path d="M7030 3851 l-45 -6 -3 -107 -3 -108 54 0 c124 0 221 -58 249 -150 18
-62 18 -299 -1 -365 -20 -68 -89 -137 -153 -153 -26 -7 -70 -12 -97 -12 l-51
0 0 -72 c0 -40 3 -90 6 -110 6 -36 7 -37 63 -44 82 -10 200 10 279 47 230 110
337 416 252 719 -78 275 -266 399 -550 361z"/>
<path d="M10895 3841 c-160 -40 -239 -115 -266 -253 -20 -107 17 -230 87 -285
57 -45 105 -67 239 -108 171 -53 194 -64 210 -96 18 -33 19 -92 4 -121 -23
-43 -131 -63 -188 -33 -38 19 -78 68 -86 105 l-7 30 -145 0 -146 0 6 -44 c27
-194 201 -327 426 -326 206 2 379 87 442 218 33 70 37 180 10 253 -46 121
-133 182 -364 259 -148 49 -187 75 -187 126 0 51 37 84 92 84 78 -1 158 -53
158 -102 0 -16 13 -18 146 -18 l147 0 -7 42 c-10 61 -38 119 -81 167 -93 103
-308 148 -490 102z"/>
<path d="M6628 3838 c9 -9 12 -147 12 -560 l0 -548 150 0 150 0 0 560 0 560
-162 0 c-126 0 -159 -3 -150 -12z"/>
<path d="M14798 3838 c9 -9 12 -147 12 -560 l0 -548 150 0 150 0 0 210 0 210
85 0 c105 0 150 -16 158 -56 4 -16 12 -99 18 -184 6 -85 13 -161 15 -167 2
-10 43 -13 159 -13 l155 0 0 39 c0 63 -20 292 -30 351 -15 79 -48 124 -112
149 -34 13 -45 20 -30 20 36 1 99 38 125 73 38 51 50 102 45 187 -6 98 -37
169 -95 221 -69 60 -114 72 -295 78 l-158 4 0 -116 0 -116 85 0 c79 0 87 -2
117 -29 30 -27 33 -34 33 -90 0 -53 -4 -64 -28 -88 -26 -27 -33 -28 -137 -31
l-110 -4 0 236 0 236 -162 0 c-126 0 -159 -3 -150 -12z"/>
<path d="M16217 3815 c-27 -19 -68 -40 -90 -46 -23 -6 -48 -13 -54 -15 -9 -2
-13 -31 -13 -99 l0 -97 65 7 65 7 0 -416 0 -416 145 0 145 0 0 555 0 555 -107
-1 c-106 0 -109 -1 -156 -34z"/>
<path d="M8020 3586 c-116 -32 -193 -95 -245 -199 -93 -189 -62 -427 73 -565
59 -61 135 -91 247 -99 216 -15 367 73 435 252 l10 25 -145 0 -144 0 -15 -28
c-24 -47 -107 -68 -158 -41 -27 14 -48 69 -48 124 l0 45 260 0 260 0 0 65 c0
174 -74 321 -192 381 -98 50 -242 67 -338 40z m197 -198 c21 -24 43 -79 43
-109 0 -17 -10 -19 -120 -19 l-120 0 6 28 c22 102 42 122 119 122 41 0 56 -5
72 -22z"/>
<path d="M8952 3584 c-70 -18 -106 -38 -158 -86 -58 -53 -91 -112 -114 -205
-61 -237 34 -475 219 -543 119 -45 307 -34 407 25 57 33 126 113 152 174 l21
51 -150 0 c-122 0 -149 -3 -149 -14 0 -28 -59 -66 -101 -66 -73 0 -104 35
-110 125 l-4 50 263 3 262 2 0 58 c-1 121 -44 250 -109 325 -83 94 -282 141
-429 101z m201 -192 c21 -23 47 -85 47 -112 0 -19 -6 -20 -120 -20 l-121 0 7
38 c9 48 29 88 51 101 31 18 118 13 136 -7z"/>
<path d="M11879 3577 c-157 -54 -242 -164 -268 -348 -22 -163 28 -321 135
-418 63 -57 119 -79 230 -88 138 -11 286 36 354 113 32 37 75 108 85 142 l6
22 -145 0 -145 0 -13 -27 c-16 -34 -52 -53 -98 -53 -66 0 -110 56 -110 140 l0
40 266 0 267 0 -7 78 c-14 151 -54 250 -129 319 -57 53 -93 71 -175 89 -97 20
-176 17 -253 -9z m206 -173 c20 -8 46 -58 55 -106 l7 -38 -118 0 -119 0 0 24
c0 34 18 77 42 104 17 17 33 22 69 22 26 0 55 -3 64 -6z"/>
<path d="M12832 3584 c-70 -18 -106 -38 -158 -86 -58 -53 -91 -112 -114 -205
-61 -237 34 -475 219 -543 119 -45 307 -34 407 25 57 33 126 113 152 174 l21
51 -150 0 c-122 0 -149 -3 -149 -14 0 -28 -59 -66 -101 -66 -73 0 -104 35
-110 125 l-4 50 263 3 262 2 0 58 c-1 121 -44 250 -109 325 -83 94 -282 141
-429 101z m201 -192 c21 -23 47 -85 47 -112 0 -19 -6 -20 -120 -20 l-121 0 7
38 c9 48 29 88 51 101 31 18 118 13 136 -7z"/>
<path d="M9628 3578 c9 -9 12 -153 12 -585 l0 -573 145 0 145 0 0 186 c0 102
3 184 8 182 118 -60 127 -63 207 -62 90 0 144 20 212 79 107 92 159 307 119
497 -27 123 -83 200 -182 249 -118 58 -234 46 -320 -33 l-44 -41 0 57 0 56
-157 0 c-122 0 -154 -3 -145 -12z m473 -224 c47 -24 71 -89 73 -193 1 -111 -8
-152 -43 -190 -25 -27 -36 -31 -79 -31 -96 0 -122 51 -122 241 0 106 14 159
47 178 27 15 90 13 124 -5z"/>
<path d="M14050 3113 c-115 -133 -109 -103 -44 -253 l57 -130 154 0 c124 0
154 3 150 13 -4 11 -245 438 -251 444 0 1 -30 -33 -66 -74z"/>
<path d="M5795 2324 c-78 -8 -181 -37 -251 -70 -169 -80 -254 -237 -224 -416
29 -170 161 -260 475 -322 126 -26 232 -64 255 -93 28 -36 26 -84 -6 -116 -36
-36 -116 -51 -239 -44 -113 6 -208 30 -319 81 l-77 35 -18 -42 c-11 -23 -37
-81 -59 -129 -30 -64 -37 -89 -29 -96 54 -43 219 -97 360 -118 132 -19 327
-14 421 11 139 38 268 131 314 227 45 93 46 232 2 322 -52 108 -149 159 -427
227 -114 28 -216 55 -227 61 -92 47 -87 136 11 184 30 14 61 18 148 18 97 -1
121 -5 205 -33 52 -18 108 -41 125 -51 l31 -19 52 124 c29 68 52 130 52 139 0
43 -244 113 -422 120 -62 2 -131 2 -153 0z"/>
<path d="M12260 2320 c-259 -33 -466 -178 -565 -394 -42 -92 -58 -169 -57
-282 1 -182 59 -322 186 -450 66 -66 99 -89 176 -127 140 -69 197 -82 375 -82
126 0 163 4 228 23 208 60 356 180 442 357 52 108 65 166 65 292 0 186 -56
322 -189 453 -98 98 -178 145 -312 183 -96 29 -248 40 -349 27z m267 -324
c275 -124 285 -546 16 -678 -64 -31 -74 -33 -173 -33 -92 0 -111 3 -154 25
-77 39 -132 94 -168 168 -31 63 -33 72 -33 177 0 102 2 114 29 165 40 76 62
104 110 138 107 77 253 92 373 38z"/>
<path d="M13595 2320 c-250 -30 -424 -163 -454 -347 -12 -75 -1 -165 27 -219
21 -41 101 -122 141 -144 45 -23 187 -68 286 -90 262 -56 335 -104 290 -191
-27 -51 -71 -64 -220 -63 -147 1 -230 19 -350 75 -38 19 -74 34 -78 34 -8 0
-116 -232 -117 -252 0 -33 206 -106 364 -129 131 -19 328 -14 420 11 82 23
182 75 238 125 103 90 145 258 98 384 -49 128 -148 193 -385 251 -247 61 -311
82 -334 111 -26 33 -27 68 -1 104 60 84 257 90 453 14 51 -19 98 -36 106 -37
10 -1 32 38 65 118 l51 120 3 -82 3 -83 204 0 205 0 0 -520 0 -520 185 0 185
0 2 518 3 517 203 3 202 2 0 145 0 145 -595 0 -595 0 0 -51 c0 -37 -3 -50 -12
-46 -193 85 -405 120 -593 97z"/>
<path d="M6507 2313 c-4 -3 -7 -303 -7 -665 l0 -658 535 0 535 0 0 140 0 140
-350 0 -350 0 0 125 0 125 298 2 297 3 0 135 0 135 -295 5 -295 5 -3 113 -3
112 336 0 335 0 0 145 0 145 -513 0 c-283 0 -517 -3 -520 -7z"/>
<path d="M7677 2313 c-4 -3 -7 -303 -7 -665 l0 -658 505 0 505 0 0 145 0 145
-315 0 -315 0 0 504 c0 277 -3 511 -6 520 -5 14 -31 16 -183 16 -98 0 -181 -3
-184 -7z"/>
<path d="M8727 2313 c-4 -3 -7 -303 -7 -665 l0 -658 188 2 187 3 3 227 2 228
293 2 292 3 0 135 0 135 -292 3 -293 2 0 150 0 150 330 0 330 0 0 145 0 145
-513 0 c-283 0 -517 -3 -520 -7z"/>
<path d="M10280 1655 l0 -665 185 0 185 0 0 260 0 260 260 0 260 0 0 -260 0
-260 185 0 185 0 0 665 0 665 -182 -2 -183 -3 -3 -247 -2 -248 -260 0 -260 0
-2 248 -3 247 -182 3 -183 2 0 -665z"/>
<path d="M15425 2308 c-3 -7 -4 -305 -3 -663 l3 -650 533 -3 532 -2 0 140 0
140 -347 2 -348 3 -3 123 -3 122 301 0 301 0 -3 138 -3 137 -295 5 -295 5 -3
113 -3 112 334 0 c184 0 336 2 338 4 2 2 3 68 1 145 l-3 141 -515 0 c-402 0
-516 -3 -519 -12z"/>
<path d="M16597 2313 c-4 -3 -7 -303 -7 -665 l0 -660 398 5 c431 4 444 6 589
66 191 79 329 238 368 426 19 89 19 250 0 337 -35 169 -160 324 -325 404 -90
44 -176 68 -300 84 -85 11 -713 14 -723 3z m730 -312 c84 -22 128 -47 178
-102 64 -71 80 -118 80 -244 0 -124 -8 -153 -66 -232 -31 -41 -55 -60 -116
-90 l-77 -38 -178 -3 -178 -4 0 359 c0 198 3 363 7 366 3 4 68 7 143 7 101 0
155 -5 207 -19z"/>
</g>
</svg>
